<?xml version="1.0" standalone="no"?><!DOCTYPE svg PUBLIC "-//W3C//DTD SVG 1.1//EN" "http://www.w3.org/Graphics/SVG/1.1/DTD/svg11.dtd"><svg t="1501506623362" class="icon" style="" viewBox="0 0 1024 1024" version="1.1" xmlns="http://www.w3.org/2000/svg" p-id="1980" xmlns:xlink="http://www.w3.org/1999/xlink" width="200" height="200"><defs><style type="text/css"></style></defs><path d="M956.767248 511.980557c0 245.666142-199.139479 444.806645-444.844507 444.806645-245.630327 0-444.691011-199.139479-444.691011-444.806645 0-245.62828 199.059662-444.768783 444.691011-444.768783C757.627768 67.212798 956.767248 266.351254 956.767248 511.980557zM511.92274 108.227933c-222.965118 0-403.676899 180.752714-403.676899 403.753647s180.713828 403.790486 403.676899 403.790486c223.038796 0 403.826302-180.789553 403.826302-403.790486S734.961536 108.227933 511.92274 108.227933z" p-id="1981" fill="#dbdbdb"></path><path d="M284.293393 512.001023m-77.511351 0a75.746 75.746 0 1 0 155.022703 0 75.746 75.746 0 1 0-155.022703 0Z" p-id="1982" fill="#dbdbdb"></path><path d="M515.999592 512m-77.512375 0a75.747 75.747 0 1 0 155.024749 0 75.747 75.747 0 1 0-155.024749 0Z" p-id="1983" fill="#dbdbdb"></path><path d="M740.878293 512m-77.512375 0a75.747 75.747 0 1 0 155.024749 0 75.747 75.747 0 1 0-155.024749 0Z" p-id="1984" fill="#dbdbdb"></path></svg>