<?xml version="1.0" standalone="no"?><!DOCTYPE svg PUBLIC "-//W3C//DTD SVG 1.1//EN" "http://www.w3.org/Graphics/SVG/1.1/DTD/svg11.dtd"><svg t="1501430780769" class="icon" style="" viewBox="0 0 1024 1024" version="1.1" xmlns="http://www.w3.org/2000/svg" p-id="2923" xmlns:xlink="http://www.w3.org/1999/xlink" width="200" height="200"><defs><style type="text/css"></style></defs><path d="M506.074545 127.58377c107.269096-11.404748 265.327948 68.437695 270.977621 262.330684 0 0 45.155433 34.212196 28.220738 108.352777 0 0 101.620445 119.755478 62.101383 233.80807-5.634324 28.509311-28.217668 34.212196-67.73673-45.6282-11.298324 28.522614-45.166689 91.245144-56.45171 102.648868 0 0 45.153386 0 50.80306 45.630247 16.934694 22.807449 11.285021 45.616944 5.649674 45.616944-11.298324 28.509311-135.487787 102.647845-265.327948 11.402701L494.789525 891.74586c0 0-95.976912 79.842443-225.815025 28.522614-67.74594-28.522614-45.168736-74.137511-39.519062-79.839373-5.649674-17.107633 11.292184-39.928385 50.802036-51.332109 0 0-39.509852-39.913035-56.45171-96.933703 0 0-33.869389 62.72253-62.09422 57.020668-28.226878-5.702885-22.584368-171.087587 67.743894-245.213841 0 0-22.584368-39.914058 0-62.73481 0 0-5.649674-28.510334 22.583344-45.616944C257.682315 395.617339 257.682315 138.998751 506.074545 127.58377L506.074545 127.58377zM506.074545 127.58377" p-id="2924" fill="#dbdbdb"></path></svg>