<?xml version="1.0" standalone="no"?><!DOCTYPE svg PUBLIC "-//W3C//DTD SVG 1.1//EN" "http://www.w3.org/Graphics/SVG/1.1/DTD/svg11.dtd"><svg t="1501342166953" class="icon" style="" viewBox="0 0 1024 1024" version="1.1" xmlns="http://www.w3.org/2000/svg" p-id="2779" xmlns:xlink="http://www.w3.org/1999/xlink" width="200" height="200"><defs><style type="text/css"></style></defs><path d="M711.637 565.694H523.915v-259.18c0-19.995-14.656-36.184-32.747-36.184-18.093 0-32.764 16.19-32.764 36.183v288.509c0 0.63 0.015 1.253 0.043 1.876a30.314 30.314 0 0 0-0.043 1.56c0 8.84 3.874 16.85 10.162 22.742 5.88 6.194 13.836 10.005 22.603 10.005 0.518 0 1.035-0.016 1.547-0.042 0.62 0.027 1.243 0.042 1.87 0.042h217.051c19.995 0 36.184-14.656 36.184-32.745s-16.189-32.766-36.183-32.766zM512 25.003c-266.403 0-482.352 215.946-482.352 482.352S245.597 989.707 512 989.707c266.387 0 482.352-215.947 482.352-482.352S778.387 25.003 512 25.003z m0 893.244c-226.924 0-410.893-183.968-410.893-410.892C101.107 280.413 285.075 96.46 512 96.46s410.893 183.952 410.893 410.894c0 226.923-183.97 410.892-410.893 410.892z" fill="#dbdbdb" p-id="2780"></path></svg>