<?xml version="1.0" standalone="no"?><!DOCTYPE svg PUBLIC "-//W3C//DTD SVG 1.1//EN" "http://www.w3.org/Graphics/SVG/1.1/DTD/svg11.dtd"><svg t="1501430617663" class="icon" style="" viewBox="0 0 1024 1024" version="1.1" xmlns="http://www.w3.org/2000/svg" p-id="1004" xmlns:xlink="http://www.w3.org/1999/xlink" width="200" height="200"><defs><style type="text/css"></style></defs><path d="M727.208457 496.318856c-34.83539-6.758937-17.905812-25.507954-17.905812-25.507954s34.086329-56.180534-6.744611-97.025801c-50.600445-50.586119-173.558871 6.437619-173.558871 6.437619-46.960545 14.572904-34.514071-6.65149-27.875884-42.769083 0-42.558281-14.572904-114.582665-139.674133-72.040756-124.978433 42.772152-232.282321 192.631252-232.282321 192.631252-74.619488 99.579973-64.744583 176.542832-64.744583 176.542832 18.642592 169.905668 199.173249 216.544895 339.585185 227.584322 147.729599 11.587919 347.103416-50.92074 407.567509-179.341574C872.021633 554.198078 762.163573 503.288594 727.208457 496.318856zM414.939407 814.260092c-146.646941 6.852058-265.204128-66.685795-265.204128-164.552753 0-97.974405 118.557186-176.542832 265.204128-183.301769 146.754389-6.755868 265.538749 53.705156 265.538749 151.478993C680.478156 715.738217 561.693796 807.597345 414.939407 814.260092z" p-id="1005" fill="#dbdbdb"></path><path d="M385.685129 530.937305c-147.502425 17.264199-130.455167 155.425885-130.455167 155.425885s-1.5104 43.748387 39.546691 66.029856c86.303598 46.746674 175.164439 18.443048 220.077348-39.532365C559.76691 654.860708 533.400403 513.793856 385.685129 530.937305zM348.481809 724.851782c-27.542286 3.225461-49.730635-12.646018-49.730635-35.68985 0-22.937408 19.713994-46.960545 47.267537-49.838082 31.636534-3.009544 52.219315 15.216563 52.219315 38.261419C398.238027 700.521654 375.916649 721.734792 348.481809 724.851782zM435.42702 650.779763c-9.326413 6.972808-20.807908 6.007831-25.733081-2.354628-5.139044-8.150634-3.212158-21.227464 6.221702-28.089755 10.936073-8.137331 22.295795-5.79703 27.220968 2.367931C448.075085 631.054513 444.542632 643.593084 435.42702 650.779763z" p-id="1006" fill="#dbdbdb"></path><path d="M799.032272 436.496375c11.883655 0 21.988804-8.792247 23.688515-20.259416 0.213871-0.857531 0.320295-1.606591 0.320295-2.570545 18.012236-161.967882-132.715651-134.094044-132.715651-134.094044-13.380752 0-24.113187 10.828626-24.113187 24.330128 0 13.289678 10.732435 24.116257 24.113187 24.116257 108.264772-23.899316 84.376713 84.36648 84.376713 84.36648C774.703167 425.777243 785.610588 436.496375 799.032272 436.496375z" p-id="1007" fill="#dbdbdb"></path><path d="M781.461081 149.183717c-52.109822-12.204973-105.708554 0.617054-120.724549 3.493567-1.161453 0.107447-2.24718 2.355651-3.316535 2.570545-0.523933 0.106424-0.844228 1.217734-0.844228 1.217734-14.800078 4.189416-25.628704 18.181081-25.628704 34.373879 0 19.297508 15.644305 35.313274 35.155684 35.313274 0 0 18.977213-2.471284 31.839149-7.503904 12.752442-5.139044 120.697943-3.790326 174.306908 86.246293 29.255301 65.709561 12.862959 109.703541 10.815323 116.768447 0 0-6.958482 17.087167-6.958482 33.892925 0 19.404955 15.655562 26.996864 35.034934 26.996864 16.2061 0 29.817096-9.657964 33.790594-34.217313l0.213871 0C1002.703975 254.931157 874.712929 170.9433 781.461081 149.183717z" p-id="1008" fill="#dbdbdb"></path></svg>